# xmcd
#
# Track frame offsets: 
#        150
#        11514
#        15864
#        28164
#        35814
#        61089
#        67163
#        76089
#        112089
#        116439
#        157164
#        158139
#        166464
#        169914
#        179387
#        195114
#        214089
#        227739
#        236214
#        262389
#        271202
#        283839
#
# Disc length: 3851 seconds
#
# Revision: 0
# Processed by: cddbd v1.5.2PL0 Copyright (c) Steve Scherf et al.
# Submitted via: ExactAudioCopy v0.99pb5
#
DISCID=370f0916
DTITLE=Johann Sebastian Bach - Vol. 10 - BWV 113, 179, 199
DYEAR=2010
DGENRE=Kantaten
TTITLE0=BWV 179 - Chor - Siehe zu daß deine Gottesfurcht nicht Heuchel
TTITLE0=ei sei
TTITLE1=BWV 179 - Rezitativ (Tenor) - Das heutge Christentum ist leide
TTITLE1=r schlecht bestellt
TTITLE2=BWV 179 - Arie (Tenor) - Falscher Heuchler Ebenbild
TTITLE3=BWV 179 - Rezitativ (Baß) - Wer so von innen wie von außen ist
TTITLE4=BWV 179 - Arie (Sopran) - Liebster Gott, erbarme dich
TTITLE5=BWV 179 - Chhoral - Ich armer Mensch, ich armer Sünder
TTITLE6=BWV 199 - Rezitativ (Sopran) - Mein Herze schwimmt im Blut
TTITLE7=BWV 199 - Arie - Rezitativ (Sopran) - Stumme Seufzer, stille K
TTITLE7=lagen
TTITLE8=BWV 199 - Rezitativ (Sopran) - Doch Gott muß mir genädig sein
TTITLE9=BWV 199 - Arie (Sopran) - Tief gebückt und voller Reue
TTITLE10=BWV 199 - Rezitativ (Sopran) - Auf diese Schmerzensreu
TTITLE11=BWV 199 - Choral (Sopran) - Ich, dein betrübtes Kind
TTITLE12=BWV 199 - Rezitativ (Sopran) - Ich lege mich in diese Wunden
TTITLE13=BWV 199 - Arie (Sopran) - Wie freudig ist mein Herz
TTITLE14=BWV 113 - Choral - Herr Jesu Christ , du höchstes Gut
TTITLE15=BWV 113 - Choral (Alt) - Erbarm dich mein in solcher Last
TTITLE16=BWV 113 - Arie (Baß) - Fürwahr, wenn mir das kommet ein
TTITLE17=BWV 113 - Choral - Rezitativ (Baß) - Jedoch dein heilsam Wort
TTITLE17=, das macht
TTITLE18=BWV 113 - Arie (Tenor) - Jesus nimmt die Sünder an
TTITLE19=BWV 113 - Rezitativ (Tenor) - Der Heiland nimmt die Sünder an
TTITLE20=BWV 113 - Arie (Sopran, Alt) - Ach Herr, mein Gott, vergib mi
TTITLE20=r doch
TTITLE21=BWV 113 - Choral - Stärk mich mit deinem Freudengeist
EXTD=
EXTT0=
EXTT1=
EXTT2=
EXTT3=
EXTT4=
EXTT5=
EXTT6=
EXTT7=
EXTT8=
EXTT9=
EXTT10=
EXTT11=
EXTT12=
EXTT13=
EXTT14=
EXTT15=
EXTT16=
EXTT17=
EXTT18=
EXTT19=
EXTT20=
EXTT21=
PLAYORDER=
